<?xml version="1.0" encoding="UTF-8" standalone="no"?>
<!-- Created with Inkscape (http://www.inkscape.org/) -->

<svg
   width="186.99998"
   height="282.99994"
   viewBox="0 0 49.477079 74.877067"
   version="1.1"
   id="svg1"
   xmlns="http://www.w3.org/2000/svg"
   xmlns:svg="http://www.w3.org/2000/svg">
  <defs
     id="defs1" />
  <g
     id="layer1"
     transform="translate(1.5874988,1.7890855)">
    <path
       style="fill:none;fill-opacity:0;stroke:#ffffff;stroke-width:1.5875;stroke-linecap:round;stroke-linejoin:round;stroke-dasharray:none;stroke-opacity:1"
       d="M -0.79374965,61.710906 V 9.5879864 L 23.151042,-0.99534242 47.095833,9.5987528 V 61.710906 L 23.151042,72.294239 Z"
       id="path37" />
    <path
       style="fill:none;fill-opacity:0;stroke:#ffffff;stroke-width:1.5875;stroke-linecap:round;stroke-linejoin:round;stroke-dasharray:none;stroke-opacity:1"
       d="M 41.804166,21.494237 V 14.879654 L 23.151042,6.9421544 4.497917,14.879654 v 13.229167 l 9.326562,7.540627"
       id="path51" />
    <path
       style="fill:none;fill-opacity:0;stroke:#ffffff;stroke-width:1.5875;stroke-linecap:round;stroke-linejoin:round;stroke-dasharray:none;stroke-opacity:1"
       d="M 4.497917,49.804656 V 56.41924 L 23.151042,64.356739 41.804166,56.41924 V 43.190073 l -9.326562,-7.540625"
       id="path52" />
    <path
       style="fill:none;stroke:#ffffff;stroke-width:1.5875;stroke-linecap:round;stroke-linejoin:round;stroke-opacity:1"
       id="path4"
       d="m -16.536458,-28.108343 a 6.6145825,6.6145825 0 0 1 -3.307292,5.728396 6.6145825,6.6145825 0 0 1 -6.614582,0 6.6145825,6.6145825 0 0 1 -3.307292,-5.728396"
       transform="scale(-1)" />
    <path
       style="fill:none;stroke:#ffffff;stroke-width:1.5875;stroke-linecap:round;stroke-linejoin:round;stroke-opacity:1"
       id="path5"
       d="m 29.765625,43.190075 a 6.6145825,6.6145825 0 0 1 -3.307291,5.728396 6.6145825,6.6145825 0 0 1 -6.614583,0 6.6145825,6.6145825 0 0 1 -3.307291,-5.728396" />
    <path
       style="fill:none;stroke:#ffffff;stroke-width:1.5875;stroke-linecap:round;stroke-linejoin:round;stroke-opacity:1"
       d="M 16.536459,43.190073 V 28.108821"
       id="path6" />
  </g>
</svg>
